<?xml version="1.0" standalone="no"?>
<!DOCTYPE svg PUBLIC "-//W3C//DTD SVG 20010904//EN"
 "http://www.w3.org/TR/2001/REC-SVG-20010904/DTD/svg10.dtd">
<svg version="1.0" xmlns="http://www.w3.org/2000/svg"
 width="24.000000pt" height="24.000000pt" viewBox="0 0 24.000000 24.000000"
 preserveAspectRatio="xMidYMid meet">

<g transform="translate(0.000000,24.000000) scale(0.100000,-0.100000)"
fill="#000000" stroke="none">
<path d="M85 211 c-64 -27 -81 -110 -32 -158 60 -61 162 -19 162 67 0 66 -72
116 -130 91z m90 -36 c33 -32 33 -78 0 -110 -49 -50 -135 -15 -135 55 0 41 39
80 80 80 19 0 40 -9 55 -25z"/>
<path d="M110 145 l-23 -25 23 -25 c13 -14 28 -25 33 -25 6 0 0 11 -13 25
l-23 25 23 25 c13 14 19 25 13 25 -5 0 -20 -11 -33 -25z"/>
</g>
</svg>
